PathFileType	4	(X/Y/Z)	C:\Users\Basilio\Documents\Thesis Gigler\squatting_fais\c3dfiles\073\SJ_pre2\markers_experimental.trc
DataRate	CameraRate	NumFrames	NumMarkers	Units	OrigDataRate	OrigDataStartFrame	OrigNumFrames
200.000000	200.000000	4	61	mm	200.000000	946	1514
Frame#	Time	FHD			LBHD			RBHD			C7			T10			CLAV			LSHO			LUUPA			LMUPA			LDUPA			LLEP			LMEP			LRAD			LUL			LRFIN			RSHO			RUPA1			RMUPA			RDUPA			RLEP			RMEP			RRAD			RUL			RUFIN			LASI			RASI			USACR			LSACR			RSACR			LTHI1			LTHI2			LTHI3			LTHI4			LLFC			LMFC			LTIB1			LTIB2			LTIB3			LTIB4			LLMAL			LMMAL			LHEE			LMT1			LMT2			LMT5			RTHI			RTHI2			RTHI3			RTHI4			RLFC			RMFC			RTIB1			RTIB2			RTIB3			RTIB4			RLMAL			RMMAL			RHEE			RMT1			RMT2			RMT5			
		X1	Y1	Z1	X2	Y2	Z2	X3	Y3	Z3	X4	Y4	Z4	X5	Y5	Z5	X6	Y6	Z6	X7	Y7	Z7	X8	Y8	Z8	X9	Y9	Z9	X10	Y10	Z10	X11	Y11	Z11	X12	Y12	Z12	X13	Y13	Z13	X14	Y14	Z14	X15	Y15	Z15	X16	Y16	Z16	X17	Y17	Z17	X18	Y18	Z18	X19	Y19	Z19	X20	Y20	Z20	X21	Y21	Z21	X22	Y22	Z22	X23	Y23	Z23	X24	Y24	Z24	X25	Y25	Z25	X26	Y26	Z26	X27	Y27	Z27	X28	Y28	Z28	X29	Y29	Z29	X30	Y30	Z30	X31	Y31	Z31	X32	Y32	Z32	X33	Y33	Z33	X34	Y34	Z34	X35	Y35	Z35	X36	Y36	Z36	X37	Y37	Z37	X38	Y38	Z38	X39	Y39	Z39	X40	Y40	Z40	X41	Y41	Z41	X42	Y42	Z42	X43	Y43	Z43	X44	Y44	Z44	X45	Y45	Z45	X46	Y46	Z46	X47	Y47	Z47	X48	Y48	Z48	X49	Y49	Z49	X50	Y50	Z50	X51	Y51	Z51	X52	Y52	Z52	X53	Y53	Z53	X54	Y54	Z54	X55	Y55	Z55	X56	Y56	Z56	X57	Y57	Z57	X58	Y58	Z58	X59	Y59	Z59	X60	Y60	Z60	X61	Y61	Z61	

947	4.73	-208.6975708007813	1714.958374023438	-976.9288330078127	-334.2438659667969	1651.519775390625	-990.2163085937502	-345.8840026855469	1636.973510742188	-856.366638183594	-362.6668090820313	1554.87548828125	-917.6712646484377	-443.0508422851564	1224.651611328125	-904.4729614257815	-239.4652099609376	1466.871826171875	-918.393249511719	-277.9778747558594	1490.1103515625	-1089.865600585938	-365.3997802734376	1416.217651367188	-1202.091186523438	-347.9272766113282	1369.580078125	-1211.597412109375	-397.5150451660157	1372.967895507813	-1247.139526367188	-438.8657836914064	1288.360595703125	-1298.829711914063	-512.9119262695314	1281.819091796875	-1257.331176757813	-382.2029418945313	1086.320434570313	-1127.189208984375	-352.7406005859376	1060.416870117188	-1189.822875976563	-335.8839416503907	1071.968872070313	-1082.370727539063	-248.6262817382813	1501.1083984375	-750.3865356445314	-349.4299011230469	1437.080444335938	-611.5581054687501	-335.8962097167969	1391.247802734375	-599.5872802734376	-387.1613769531251	1396.99658203125	-568.7062988281251	-417.8746337890626	1322.198364257813	-519.5851440429689	-489.9537963867189	1311.414672851563	-579.3773193359376	-396.741424560547	1091.404663085938	-664.5829467773439	-354.4834594726563	1073.33203125	-604.3011474609376	-335.1744995117188	1078.477294921875	-707.9691162109376	-280.5038146972657	1071.506225585938	-1022.922058105469	-273.9322509765626	1070.419189453125	-780.382995605469	-456.8134765625001	1112.389526367188	-894.5079345703127	-464.8778076171876	1081.979125976563	-922.3547973632815	-468.3420715332032	1080.905517578125	-866.3646240234377	-284.5745544433594	744.5179443359376	-1118.527099609375	-238.5794525146485	672.6653442382814	-1115.780639648438	-194.4288177490235	680.6336059570314	-1092.683959960938	-259.7531127929688	617.4349975585939	-1111.433715820313	-258.1850891113282	559.4504394531251	-1125.244506835938	-247.0782165527344	537.5772094726564	-989.9456787109377	-241.7369995117188	350.7784729003907	-1104.157470703125	-311.1179809570313	333.5104064941407	-1154.6171875	-273.3452758789063	314.5766601562501	-1140.2744140625	-293.4121398925782	235.3537750244141	-1115.43701171875	-394.7764587402345	144.2360992431641	-1146.127075195313	-374.6213073730469	157.5704498291016	-1070.865478515625	-456.5123901367189	124.3109436035157	-1109.640502929688	-248.6214752197266	49.29850006103517	-1082.851928710938	-249.6153717041016	49.78093338012697	-1121.418212890625	-288.1284179687501	43.56164169311524	-1174.267333984375	-337.0929870605469	824.9048461914065	-678.0144042968751	-293.8216552734376	775.5141601562502	-669.1131591796876	-261.6455688476563	780.6723632812502	-673.2160644531251	-309.2284851074219	692.8403930664064	-676.9652099609376	-280.3154907226563	548.5245971679689	-667.0418090820314	-259.1479187011719	520.4660034179689	-791.7908325195315	-262.2784423828126	370.3485412597657	-727.3316650390626	-316.0823059082032	308.8965759277344	-656.0056762695314	-287.7561340332032	295.4288330078126	-692.5765380859376	-314.8465881347657	252.1057739257813	-720.6665649414064	-414.0863647460939	143.1852111816407	-665.2204589843751	-389.9976196289064	159.7617797851563	-747.6549682617189	-480.2341613769532	129.6495361328125	-724.2485961914064	-273.1192932128907	53.97439575195314	-721.4765625000001	-274.4880371093751	50.22960281372072	-678.9273071289064	-324.6605834960938	36.98805618286134	-636.6790771484376	
948	4.735	-209.1419525146485	1703.848876953125	-977.5010986328127	-334.0510864257813	1639.457275390625	-990.393737792969	-344.9346923828126	1624.911987304688	-856.3194580078127	-362.3478088378907	1543.325561523438	-917.5396118164065	-444.0234985351564	1212.395874023438	-904.460388183594	-238.7592773437501	1454.8701171875	-918.5357055664065	-277.3445129394532	1477.849243164063	-1090.207641601563	-364.8636169433594	1403.658203125	-1202.307495117188	-347.7164001464844	1356.83544921875	-1211.672729492188	-397.3730773925782	1360.929443359375	-1247.567138671875	-438.6711425781251	1276.385009765625	-1298.95458984375	-512.8428344726564	1269.807006835938	-1257.767578125	-383.2578125000001	1073.88623046875	-1127.640869140625	-353.4793701171876	1048.082397460938	-1190.34716796875	-337.4746704101563	1059.584594726563	-1082.7177734375	-247.7292022705079	1488.790893554688	-750.2553710937501	-349.0469360351563	1424.923217773438	-611.4014892578126	-335.8030700683594	1378.990966796875	-599.5618896484376	-386.6721496582032	1385.126342773438	-568.3052978515626	-418.0548706054689	1310.329345703125	-519.5249633789064	-490.1199035644532	1299.900268554688	-579.2674560546876	-398.271697998047	1079.422607421875	-664.2410278320314	-355.7749023437501	1061.505493164063	-604.0372314453126	-337.1031494140626	1066.278198242188	-707.9812011718751	-282.0197753906251	1059.39013671875	-1022.98876953125	-275.6216125488282	1058.147338867188	-780.0615234375002	-458.6602478027345	1099.740356445313	-894.675720214844	-467.1437988281251	1069.313720703125	-922.4856567382815	-470.4426269531251	1068.41259765625	-866.573425292969	-283.8830871582032	733.4033203125001	-1119.771240234375	-236.3426971435547	662.4395141601564	-1117.48388671875	-192.2237701416016	670.7075805664064	-1094.482543945313	-256.1979064941407	607.2476806640626	-1113.546142578125	-253.0198211669922	549.0703735351564	-1126.865478515625	-244.3266601562501	527.1213378906251	-991.9593505859377	-246.4589843750001	342.1322021484376	-1106.887084960938	-318.2048034667969	327.5183105468751	-1154.37841796875	-280.0030822753907	307.7149047851563	-1142.007690429688	-300.0199584960938	227.912094116211	-1117.27783203125	-399.8746643066407	138.572021484375	-1149.50439453125	-381.9849853515626	150.6177673339844	-1070.39306640625	-463.6162109375001	113.4224243164063	-1110.780883789063	-249.9744873046876	49.26409912109376	-1084.185180664063	-249.7697296142579	51.29934692382814	-1122.909790039063	-290.8560180664063	40.51645278930665	-1175.755859375	-337.6630859375001	812.528503417969	-677.5575561523439	-293.8204956054688	763.8545532226564	-667.4453125000001	-261.1907348632813	769.6421508789065	-671.7796020507814	-307.1835937500001	681.0072021484376	-677.2781372070314	-275.9746398925782	537.6659545898439	-665.9127807617189	-256.4258728027344	508.857635498047	-790.3369140625002	-264.3159179687501	360.2613220214844	-728.0200805664064	-322.1791381835938	301.3231811523438	-657.4254150390626	-293.7947387695313	286.6502380371094	-693.4224243164064	-321.4953918457032	243.8168640136719	-722.5274047851564	-420.3158264160157	138.6409301757813	-665.1074829101564	-398.6868591308595	154.8126525878907	-748.3847045898439	-487.313934326172	119.892562866211	-723.4818115234376	-274.8295288085938	53.55567169189455	-720.7189331054689	-276.7516174316407	50.27888107299806	-678.3152465820314	-326.2117614746094	35.35883331298829	-635.5373535156251	
949	4.74	-209.0293426513672	1693.28466796875	-977.551208496094	-333.4493713378907	1627.711669921875	-990.5853271484377	-344.3071289062501	1613.066528320313	-856.4432373046877	-361.7987060546876	1531.9873046875	-917.4737548828127	-444.7872924804689	1200.109252929688	-904.287536621094	-237.9698791503907	1442.87255859375	-918.718200683594	-276.5443115234376	1465.7607421875	-1090.457397460938	-364.1452331542969	1391.195678710938	-1202.747436523438	-347.7142028808594	1344.017456054688	-1211.484252929688	-396.6674804687501	1348.140869140625	-1247.474853515625	-438.617401123047	1264.320068359375	-1299.111206054688	-512.7578735351564	1257.891723632813	-1258.13330078125	-384.4764709472657	1061.468505859375	-1128.115966796875	-354.1503601074219	1035.873168945313	-1190.633666992188	-338.6449890136719	1047.118041992188	-1083.161499023438	-246.8220977783204	1476.536987304688	-750.1186523437501	-348.6112060546876	1412.6767578125	-611.2662963867189	-335.6560668945313	1366.645263671875	-599.4305419921876	-386.4516601562501	1373.17529296875	-568.0352783203126	-418.1056213378907	1298.488403320313	-519.3688964843751	-490.3079528808595	1288.37255859375	-579.0583496093751	-399.936981201172	1067.571655273438	-663.8095703125001	-356.9608459472657	1049.563354492188	-603.8330688476564	-339.0607299804688	1053.971801757813	-707.8333740234376	-283.4864501953126	1047.094604492188	-1023.176940917969	-277.3878173828126	1045.765991210938	-779.777526855469	-460.4563293457032	1086.916015625	-894.8430175781252	-470.4423217773439	1056.847900390625	-922.3899536132815	-472.8765869140626	1055.705688476563	-866.5932617187502	-282.9934387207032	723.0654296875001	-1120.656982421875	-234.6961059570313	652.3657226562501	-1118.74169921875	-190.5291137695313	660.8041992187501	-1095.791870117188	-253.4077453613282	597.4291992187501	-1115.93994140625	-247.4939270019532	538.7543334960939	-1128.516845703125	-240.5056762695313	517.0195922851564	-994.2083740234377	-250.0655212402344	333.7150878906251	-1109.2099609375	-323.9537353515626	321.2982482910157	-1154.274291992188	-286.0779113769532	300.2816162109376	-1143.174682617188	-305.4138183593751	219.990219116211	-1118.759521484375	-404.7103271484376	129.1291198730469	-1151.599609375	-386.8328857421876	142.9183807373047	-1069.318481445313	-469.3411560058595	101.4413986206055	-1112.147216796875	-251.150863647461	50.32521057128908	-1085.004150390625	-252.9183349609376	50.68806076049806	-1123.624145507813	-291.6942138671876	39.23277664184571	-1176.569702148438	-337.8412170410157	800.0720825195315	-676.9047241210939	-293.4194030761719	752.0477294921876	-666.3542480468751	-260.6684570312501	758.5466308593751	-670.1419067382814	-305.0987243652344	669.1833496093751	-676.6781616210939	-270.7327880859376	526.7440185546876	-664.5273437500001	-252.763168334961	497.7618713378907	-788.7747802734377	-266.3233947753907	351.0709838867188	-728.5465698242189	-325.8186035156251	293.5578002929688	-658.0589599609376	-298.0998229980469	278.2540283203126	-694.1171264648439	-326.2868347167969	235.6990814208985	-724.3082275390626	-422.3152770996095	132.2091827392578	-664.5799560546876	-403.7638244628907	148.5079040527344	-750.5950927734376	-493.1983337402345	109.3989486694336	-722.0209350585939	-275.4440612792969	53.8093605041504	-720.4418945312501	-277.7198791503907	50.74715423583986	-678.3741455078126	-326.6265869140626	34.68617248535157	-635.3128662109376	
950	4.745	-206.4889373779297	1682.950439453125	-978.084655761719	-333.0409545898438	1616.2919921875	-990.7794189453127	-343.5227355957032	1601.609497070313	-856.5386962890627	-361.2702331542969	1521.023681640625	-917.2644653320315	-445.2489318847657	1187.9072265625	-904.253356933594	-237.1050720214844	1431.024169921875	-918.8589477539065	-275.7802734375001	1453.661865234375	-1090.909790039063	-363.2821655273438	1378.694213867188	-1203.199951171875	-347.3395996093751	1331.251586914063	-1211.595703125	-396.1354980468751	1335.218627929688	-1247.86328125	-438.5345458984376	1252.244750976563	-1299.194580078125	-512.6458740234376	1245.877075195313	-1258.346557617188	-385.7396850585939	1049.239379882813	-1128.633056640625	-355.3504333496094	1023.3671875	-1191.086669921875	-340.1057434082032	1034.6513671875	-1083.726684570313	-245.6988372802735	1464.409912109375	-749.6804199218751	-347.9418945312501	1400.5595703125	-611.0065917968751	-335.4696655273438	1354.337768554688	-599.2025756835939	-386.494354248047	1361.1708984375	-568.0522460937501	-418.1287536621095	1286.726806640625	-519.2753906250001	-490.3341674804689	1276.814453125	-578.9224853515626	-401.3092041015626	1055.599487304688	-663.4114379882814	-358.2719116210938	1037.75048828125	-603.5061035156251	-340.6431884765626	1041.809936523438	-707.3918457031251	-284.8957214355469	1034.657958984375	-1023.290405273438	-279.0744323730469	1033.338623046875	-779.228698730469	-462.3750305175782	1073.922973632813	-894.7993164062502	-471.3383789062501	1043.652954101563	-922.792175292969	-474.6702575683595	1042.778930664063	-866.749206542969	-282.8790588378907	713.4453735351564	-1121.7001953125	-233.9241180419922	643.1763916015626	-1119.222534179688	-189.8960723876953	651.3602905273439	-1096.642578125	-251.7521667480469	588.0309448242189	-1118.466186523438	-243.7080383300782	528.7434082031251	-1130.606689453125	-235.6683502197266	506.9973754882814	-996.7993164062502	-253.1553955078126	325.5683593750001	-1110.988891601563	-327.3623657226563	313.8379516601563	-1155.534057617188	-290.4259643554688	292.8736267089844	-1144.517333984375	-309.3151855468751	212.3660583496094	-1120.100341796875	-409.4096679687501	119.6553421020508	-1153.016357421875	-391.1885375976564	135.1561431884766	-1068.960815429688	-473.7136230468751	89.26742553710939	-1113.222900390625	-251.4931182861329	51.4482765197754	-1085.356811523438	-253.9543457031251	51.76401901245119	-1123.849243164063	-292.1001281738282	38.3877182006836	-1177.393798828125	-337.9176025390626	788.099792480469	-676.2440185546876	-292.4747314453126	740.8203125000001	-665.7230834960939	-260.0721740722657	747.7618408203126	-669.5673828125001	-303.2660827636719	657.6842041015626	-674.8377685546876	-265.6907653808594	515.7946166992189	-663.4573974609376	-247.9706420898438	487.2445068359376	-787.457702636719	-268.4932556152344	342.1368408203126	-728.3347778320314	-328.2141418457032	285.0372009277344	-658.8013305664064	-300.8726501464844	269.3114318847657	-695.0955810546876	-329.8507690429688	228.0490722656251	-725.5073852539064	-425.4177856445314	123.1678848266602	-665.2561645507814	-408.9080505371095	141.3716583251953	-752.2804565429689	-498.1759338378907	97.03383636474612	-722.1298217773439	-276.6476745605469	54.1470069885254	-720.6334838867189	-278.8473510742188	51.02585601806642	-678.9937744140626	-327.0176086425782	34.09296798706055	-634.4754028320314	
